<?xml version="1.0" encoding="UTF-8" standalone="no"?>
<!-- Created with Inkscape (http://www.inkscape.org/) -->

<svg
   xmlns:dc="http://purl.org/dc/elements/1.1/"
   xmlns:cc="http://creativecommons.org/ns#"
   xmlns:rdf="http://www.w3.org/1999/02/22-rdf-syntax-ns#"
   xmlns:svg="http://www.w3.org/2000/svg"
   xmlns="http://www.w3.org/2000/svg"
   xmlns:xlink="http://www.w3.org/1999/xlink"
   xmlns:sodipodi="http://sodipodi.sourceforge.net/DTD/sodipodi-0.dtd"
   xmlns:inkscape="http://www.inkscape.org/namespaces/inkscape"
   inkscape:version="0.91 r13725"
   version="1.1"
   id="svg2"
   height="679.43384"
   width="1043.5525"
   sodipodi:docname="fist.svg">
  <sodipodi:namedview
     id="base"
     pagecolor="#ffffff"
     bordercolor="#666666"
     borderopacity="1.0"
     inkscape:pageopacity="0.0"
     inkscape:pageshadow="2"
     inkscape:zoom="0.70710678"
     inkscape:cx="371.13504"
     inkscape:cy="343.455"
     inkscape:document-units="px"
     inkscape:current-layer="layer1"
     showgrid="false"
     showguides="true"
     inkscape:guide-bbox="true"
     inkscape:window-width="1366"
     inkscape:window-height="704"
     inkscape:window-x="0"
     inkscape:window-y="27"
     inkscape:window-maximized="1"
     fit-margin-top="10"
     fit-margin-left="10"
     fit-margin-right="10"
     fit-margin-bottom="10" />
  <defs
     id="defs4">
    <inkscape:perspective
       id="perspective9218"
       inkscape:persp3d-origin="384.09411 : 1836.5078 : 1"
       inkscape:vp_z="-72.401245 : 8.8663025e-15 : 0"
       inkscape:vp_y="5.9021918e-15 : 96.393293 : 0"
       inkscape:vp_x="-121.67571 : 1336.4875 : 1"
       sodipodi:type="inkscape:persp3d" />
    <defs
       id="defs7">
      <rect
         id="SVGID_1_"
         y="-483.784"
         x="-598.18903"
         height="2528.572"
         width="1987.276" />
    </defs>
    <clipPath
       id="SVGID_2_">
      <use
         xlink:href="#SVGID_1_"
         height="1516.6479"
         width="840.70001"
         y="0"
         x="0"
         style="overflow:visible"
         id="use11" />
    </clipPath>
    <inkscape:perspective
       id="perspective9218-1"
       inkscape:persp3d-origin="444.59311 : 2000.2132 : 1"
       inkscape:vp_z="-72.401245 : 8.8663025e-15 : 0"
       inkscape:vp_y="5.9021918e-15 : 96.393293 : 0"
       inkscape:vp_x="-61.176713 : 1500.1929 : 1"
       sodipodi:type="inkscape:persp3d" />
  </defs>
  <metadata
     id="metadata7">
    <rdf:RDF>
      <cc:Work
         rdf:about="">
        <dc:format>image/svg+xml</dc:format>
        <dc:type
           rdf:resource="http://purl.org/dc/dcmitype/StillImage" />
        <dc:title></dc:title>
      </cc:Work>
    </rdf:RDF>
  </metadata>
  <g
     transform="translate(487.77104,771.36871)"
     id="layer1"
     inkscape:groupmode="layer"
     inkscape:label="Layer 1">
    <g
       id="flowRoot4757-4"
       style="font-style:normal;font-variant:normal;font-weight:normal;font-stretch:normal;font-size:100px;line-height:125%;font-family:'Franklin Gothic Heavy';-inkscape-font-specification:'Franklin Gothic Heavy,';text-align:center;letter-spacing:0px;word-spacing:0px;text-anchor:middle;fill:#ececec;fill-opacity:1;stroke:none"
       transform="matrix(-1,0,0,1,-6.4375,0)" />
    <g
       transform="translate(-83.3876,125.51945)"
       id="g4897">
      <g
         transform="matrix(1,0,0,-1,83.387604,645.79305)"
         style="font-style:normal;font-variant:normal;font-weight:normal;font-stretch:normal;font-size:100px;line-height:125%;font-family:'Franklin Gothic Heavy';-inkscape-font-specification:'Franklin Gothic Heavy,';text-align:center;letter-spacing:0px;word-spacing:0px;text-anchor:middle;fill:#ececec;fill-opacity:1;stroke:none"
         id="flowRoot4757-9" />
    </g>
    <g
       id="flowRoot5589-1-0"
       style="font-style:normal;font-variant:normal;font-weight:bold;font-stretch:normal;font-size:144px;line-height:125%;font-family:'Kozuka Gothic Pro B';-inkscape-font-specification:'Kozuka Gothic Pro B Bold';text-align:center;letter-spacing:0px;word-spacing:0px;text-anchor:middle;fill:#000000;fill-opacity:1;stroke:none"
       transform="matrix(-1.045153,0,0,1.045153,6334.4671,67.906232)" />
    <g
       transform="translate(-982.34306,-351.89412)"
       id="g7982-3"
       style="fill:#000000;stroke:none">
      <path
         style="color:#000000;font-style:normal;font-variant:normal;font-weight:normal;font-stretch:normal;font-size:medium;line-height:normal;font-family:Sans;-inkscape-font-specification:Sans;text-indent:0;text-align:start;text-decoration:none;text-decoration-line:none;letter-spacing:normal;word-spacing:normal;text-transform:none;direction:ltr;block-progression:tb;writing-mode:lr-tb;baseline-shift:baseline;text-anchor:start;display:inline;overflow:visible;visibility:visible;fill:#000000;fill-opacity:1;fill-rule:nonzero;stroke:none;stroke-width:30;marker:none;enable-background:accumulate"
         d="m 992.22092,-409.47459 -13.0068,25.58244 -33.25,-1.8125 -8.87624,18.86688 -36.18855,-1.91259 -12.33033,24.39415 -39.68719,-2.18834 c -4.23976,7.68075 -10.15579,21.16481 -14.22709,28.93676 -0.80088,1.41373 0.65089,4.56824 -0.13973,5.96895 -7.00521,12.41076 -13.46161,26.76293 -15.84972,38.39276 l -22.97781,-8.57594 8.45797,-13.32114 -184.42893,-29.14856 112.31424,51.84745 -13.89598,18.52199 c 32.12506,6.68719 56.08402,15.03769 88.209,21.72526 l -85.7813,7.46875 3.02145,-17.52789 -219.01189,41.69045 134.39577,11.87697 -6.21783,30.55422 c 0,0 94.62565,-13.683 141.9375,-20.53125 l -187.34969,82.858877 142.68971,-16.351517 -12.02752,30.96139 101.5,-38.34375 c 3.4371,33.62772 15.4449,64.42477 25.6875,93.34375 l 0.0625,0.25 0.125,0.25 3.0625,7.75 c 1.3772,6.05522 3.5912,15.83944 3.7813,16.6875 l 1.3124,10.75 0.4376,33.90625 0,0.1875 -0.4063,13 0.0313,0 -0.875,17.5 0,0.1875 -0.8126,13.3125 0,0.125 -0.0312,0.09375 c -1.2955,28.06568 -13.1343,55.52706 -26.8125,83.15625 l -3.875,7.78125 4.8437,7.25 c 9.6257,14.33695 23.6773,21.51293 34.7813,27.3125 l 0.4375,0.25 0.5,0.21875 c 17.2573,7.54391 37.5563,20.50118 63.9062,20.125 l 13.4688,-0.1875 1.25,-13.4375 c 2.0283,-21.82985 5.0965,-42.76893 12.875,-61.09375 l 0.3438,-0.8125 0.2187,-0.8125 c 2.2388,-7.57181 8.3644,-13.65297 16.5,-16.625 l 1,-0.375 0.9687,-0.53125 c 5.1373,-2.77139 10.1086,-2.45539 16.3438,0.5 6.2352,2.95539 12.57324,9.06658 15.87504,14.96875 l 0.25,0.4375 0.25,0.375 c 12.9732,20.08764 11.8912,47.84301 12,77.40625 l 0.062,16.25 16.1875,-1.375 c 50.6006,-4.25421 94.9178,-33.66361 123.8438,-73 l 6.1874,-8.40625 -5.75,-8.71875 c -28.702,-43.56143 -40.0183,-97.46592 -42.8437,-151.125 l 0.9375,-13 0,-0.03125 1.1562,-16.09375 3.5626,-12.4375 11.0937,-38.90625 4.5625,-16 6.0938,-21.3125 7.125,-24.96875 -0.4063,0.0937 c 1.2442,-4.98246 2.3939,-9.97433 3.375,-15 l 69.5625,23.78125 -1.2188,1.3125 -16.6874,18.09375 23.7187,6.5625 117.0625,32.3125 8.2812,2.3125 6.1876,-6.03125 27.0312,-26.4375 18.6875,-18.21875 -25.1563,-6.96875 -86.1874,-23.8125 10.0624,-17.59375 c -51.6642,-11.63309 -100.7011,-22.85116 -145.7812,-33 0.3366,-8.21649 0.411,-16.42397 0.1562,-24.625 30.125,0.58413 60.25,1.16679 90.375,1.75 -0.3578,6.3748 -0.7089,12.74996 -1.0624,19.125 36.6985,-1.19146 73.3959,-2.41357 110.0937,-3.625 l -0.125,1.125 -1.875,17.5 17.5625,-0.9375 109.5938,-5.78125 7.8124,-0.40625 4.125,-6.625 18.5,-29.71875 15.2188,-24.40625 -28.7188,1.5 -60.9687,3.15625 0.062,-0.375 2.9688,-18.9375 -19.0938,1.6875 -101.1875,8.96875 9.625,-19.9375 -25.9375,1.9375 -142.5312,10.78125 -0.375,0.0312 2.1874,-0.75 128.1563,-43.5625 -0.2813,2.375 -2.625,22.625 21.8438,-6.53125 134.875,-40.40625 8.4375,-2.5313 1.9063,-8.625 7.9374,-36.0312 5.625,-25.5938 -24.9374,8.125 -94.5,30.8126 0.2187,-6.3126 0.875,-23.6562 -21.7813,9.3125 -34.8124,14.875 -0.25,0.0937 -0.2813,0.125 -140.5937,66.6876 -5.1876,2.4687 c -3.7805,-19.7292 -7.125,-42.3494 -20.9374,-63.3125 -0.032,-0.0522 -0.062,-0.1041 -0.094,-0.1562 -0.09,-0.1359 -0.1592,-0.2706 -0.25,-0.4063 l -0.031,0.0313 c -12.6227,-20.4504 -33.2107,-34.2044 -56.2188,-39.0938 l -9.375,-1.9688 -20.8214,26.73426 -16.3608,-27.17479 z m -183.06476,225.84007 c 0.1025,2.31591 0.5287,10.58015 1.0313,18 l -23.75,7.03125 -0.6563,-21.65625 z"
         id="path20-5-8"
         inkscape:connector-curvature="0"
         sodipodi:nodetypes="ccccccccscccccccccccccccccccccccccccccccccccccccccccccccsccccccccccccccccccccccccccccccccccccccccccccccccccccccccccccccccccccccccccccccccccccccccc" />
    </g>
    <g
       id="g7982"
       transform="translate(-1866.3431,343.59636)">
      <path
         style="fill:#fab017"
         d="M 504.02734 17.703125 L 496.19336 33.113281 L 513.45703 34.033203 L 521.29102 18.623047 L 504.02734 17.703125 z M 526.66602 27.931641 L 518.83008 43.341797 L 529.43164 61.703125 L 538.87891 49.082031 L 526.66602 27.931641 z M 573.55273 28.933594 L 537.30273 77.228516 C 542.90923 93.552916 555.85801 106.72164 557.88281 121.99219 L 556.32227 146.91602 C 556.32227 146.91602 556.84288 149.9402 557.39648 151.43359 L 581.66797 194.02344 L 562.99023 230.75781 L 534.86523 230.29297 C 530.44783 239.32845 525.76628 248.81151 520.95898 257.64258 L 487.99219 256.93359 L 471.35352 289.59961 L 433.17773 288.78125 L 417.44727 261.53711 C 390.06457 271.99964 366.79608 282.24343 339.20898 292.18359 C 341.37788 325.43355 353.70233 357.14433 364.74023 388.30859 L 622.14648 297.55859 L 636.54688 292.41992 L 638.82617 284.44531 C 646.47637 255.60142 649.38258 225.70108 648.33398 195.93359 C 632.86358 197.04268 617.24578 197.84078 601.89648 195.05859 C 615.92088 185.01623 636.63838 187.32843 647.14648 172.05859 C 648.91798 159.8094 644.75318 147.65548 642.83398 135.65234 C 636.18708 110.80564 635.16478 83.633444 620.45898 61.652344 C 610.13278 44.626044 592.94853 33.055794 573.55273 28.933594 z M 458.45117 40.125 L 448.81445 59.080078 L 470.04883 60.210938 L 479.68555 41.255859 L 458.45117 40.125 z M 485.03906 50.529297 L 475.4043 69.488281 L 503.63867 118.39258 L 524.47852 118.83789 L 485.03906 50.529297 z M 411.13477 57.072266 L 400.02734 78.919922 L 424.5 80.222656 L 435.60938 58.375 L 411.13477 57.072266 z M 441.23242 68.117188 L 430.125 89.962891 L 457.51562 137.4082 L 481.53516 137.92188 L 441.23242 68.117188 z M 359.20703 81.412109 L 348.57617 102.32031 L 371.99805 103.56641 L 382.62891 82.660156 L 359.20703 81.412109 z M 620.89648 84.402344 C 618.98098 107.11404 603.12018 128.67825 581.39648 136.08984 C 576.13108 135.09053 570.95263 133.77623 565.86523 132.15234 C 574.28753 124.85809 583.47068 118.54932 592.39648 111.90234 C 603.08228 103.82834 607.81448 89.557844 620.89648 84.402344 z M 388.15234 92.226562 L 377.52148 113.13477 L 407.12695 164.41406 L 430.11328 164.90625 L 388.15234 92.226562 z M 342.42969 121.92773 C 336.98539 130.21427 331.58198 143.97378 331.30078 153.15625 L 360.79883 163.41992 L 342.42969 121.92773 z M 508.625 125.49023 L 498.97461 144.4707 L 518.92773 144.87109 L 528.56445 125.91602 C 528.56445 125.91602 514.4468 125.46373 508.625 125.49023 z M 534.23047 135.72852 L 524.5918 154.68359 L 545.36719 190.66406 L 566.19336 191.0918 L 534.23047 135.72852 z M 464.34375 149.23438 L 453.54297 170.48242 L 476.90039 170.98242 L 487.70312 149.73633 L 464.34375 149.23438 z M 494.45312 160.29688 L 483.3457 182.14453 L 504.99805 219.64844 L 529.01758 220.16406 L 494.45312 160.29688 z M 413.51562 175.47852 L 402.88477 196.38477 L 425.87109 196.87891 L 436.50195 175.9707 L 413.51562 175.47852 z M 444.07812 189.0957 L 433.44922 210.00195 L 454.60156 246.64258 L 477.58789 247.13477 L 444.07812 189.0957 z M 550.49609 199.54883 L 539.89648 220.39648 L 556.49609 220.75391 L 567.0957 199.90625 C 565.9998 199.89792 550.49609 199.54883 550.49609 199.54883 z M 395.69727 223.86523 C 372.15277 228.10475 352.84026 227.46699 329.44336 232.66797 C 329.69326 240.28775 330.08982 247.90306 330.69922 255.50391 C 355.11812 248.89859 377.01118 241.43891 400.64648 232.4375 L 395.69727 223.86523 z M 501.93555 229.45117 C 499.35015 235.86723 492.77734 247.46094 492.77734 247.46094 L 512.74219 247.88867 L 521.89844 229.87891 L 501.93555 229.45117 z M 449.78516 256.11523 L 438.63867 278.04102 L 461.62305 278.5332 L 472.77148 256.60742 L 449.78516 256.11523 z M 622.43359 342.24219 L 373.95703 428.09375 L 374.39648 463.34961 L 611.33008 381.14258 L 622.43359 342.24219 z M 605.09766 426.68359 L 372.29297 507.9707 C 370.82807 539.70654 357.78717 569.08471 343.91797 597.09961 C 350.90177 607.50158 362.29831 613.8493 373.16211 619.52344 C 391.71001 627.63152 409.92514 638.69552 430.86914 638.39648 C 432.93964 616.1125 436.06279 593.56149 444.87109 572.81055 C 448.57689 560.27747 458.42558 550.76436 470.58008 546.32422 C 490.19168 535.74434 513.22867 550.18788 523.01367 567.67969 C 539.35857 592.98811 537.31588 624.31921 537.42188 653.13281 C 582.93998 649.30588 623.74565 622.4923 650.43945 586.19141 C 619.45305 539.16301 607.92156 482.19103 605.09766 426.68359 z "
         transform="translate(1378.5721,-1114.9651)"
         id="path20-5" />
      <path
         style="fill:#c2231c"
         d="M 955.19141 37.025391 L 840.19531 74.492188 L 841.24805 46.701172 L 657.85938 131.79102 L 660.71875 141.76367 L 815.36328 87.521484 L 812.36133 113.46094 L 947.24609 73.042969 L 955.19141 37.025391 z M 156.56836 104.85742 L 251.375 143.92969 L 241.42773 157.33984 L 337.55859 177.3457 L 372.17969 183.13086 L 365.70703 171.92188 L 277.27344 146.37891 L 287.9707 130.32031 L 156.56836 104.85742 z M 811.42383 157.83984 L 664.31836 168.10938 L 664.22656 181.97852 L 769.53125 183.92383 L 768.51758 202.19531 L 879.44531 198.54688 L 877.52148 216.82227 L 987.12891 211.06055 L 1005.627 181.31641 L 926.21289 185.46875 L 929.10352 166.81445 L 801.63867 178.11328 L 811.42383 157.83984 z M 211.37891 191.27148 L 61.228516 215.47461 L 162.27344 221.67188 L 157.48047 243.42969 L 387.75391 210.10547 L 379.54297 195.88477 L 321.34961 201.50391 L 208.25 211.34961 L 211.37891 191.27148 z M 662.0293 237.37891 L 660.26172 254.39258 L 753.83398 286.21875 L 736.97852 304.44727 L 854.4043 336.86133 L 881.09961 310.36133 L 776.26562 281.42578 L 785.86523 264.64648 L 662.0293 237.37891 z M 406.48047 242.54297 L 277.4668 280.80273 L 276.77344 258.33203 L 149.64453 309.14258 L 256.25781 292.89062 L 248.9707 312.60938 L 411.48633 251.21289 L 406.48047 242.54297 z M 633.08984 304.91016 L 368.25781 397.22852 C 369.65831 403.36446 372.41406 415.66797 372.41406 415.66797 L 627 326.24805 L 633.08984 304.91016 z M 607.36133 395.04883 L 373.97656 476.55273 L 373.12891 494.48438 L 606.0918 412.72656 L 607.36133 395.04883 z "
         transform="translate(1378.5721,-1114.9651)"
         id="path36-1" />
    </g>
    <g
       id="flowRoot16831"
       style="font-style:normal;font-variant:normal;font-weight:bold;font-stretch:normal;font-size:40px;line-height:125%;font-family:'Poplar Std';-inkscape-font-specification:'Poplar Std Bold';letter-spacing:0px;word-spacing:0px;fill:#ff00ff;fill-opacity:1;stroke:none"
       transform="matrix(4.2428989,0,0,2.0916807,3220.0363,-286.80044)" />
  </g>
</svg>
